<?xml version="1.0" encoding="utf-8"?>
<svg xmlns="http://www.w3.org/2000/svg" height="256" width="256" viewBox="0 0 256 256">
  <g>
    <rect height="256" width="256" fill="#0C2BF4" />
    <path id="path1" transform="rotate(0,128,128) translate(30,30) scale(6.125,6.125)  " fill="#FCFCFC" d="M5.7170138,19.466998L14.075005,25.451991 12.910006,27.075989 4.5520148,21.090996z M22.793007,0L24.490005,1.0559998 19.411049,9.2031803 19.682281,9.3060818C24.114532,11.090359 27.028976,15.365124 27.028976,20.226999 27.028976,24.183062 25.072403,27.689434 22.078196,29.825141L21.855457,29.980019 32,29.980019 32,31.979019 15.974984,31.979019 15.886572,31.984653C15.68665,31.994843 15.485425,32 15.283019,32 15.133019,32 14.98302,31.997 14.833021,31.991L14.833447,31.979019 0,31.979019 0,29.980019 15.912966,29.980019 16.031784,29.972443C21.057266,29.5877 25.028984,25.36339 25.028984,20.226999 25.028984,16.054592 22.446304,12.404917 18.560116,11.018993L18.327517,10.941282 12.550026,20.208984 10.853028,19.152986z" />
  </g>
</svg>

