<?xml version="1.0" encoding="utf-8"?>
<!-- Generator: Adobe Illustrator 20.1.0, SVG Export Plug-In . SVG Version: 6.00 Build 0)  -->
<svg version="1.1" id="Layer_1" xmlns="http://www.w3.org/2000/svg" xmlns:xlink="http://www.w3.org/1999/xlink" x="0px" y="0px"
	 viewBox="0 0 256 256" style="enable-background:new 0 0 256 256;" xml:space="preserve">
<style type="text/css">
	.st0{fill:#0C2030;}
	.st1{fill:#FFFFFF;}
	.st2{fill:#3FEFCD;}
	.st3{fill:#FF4D24;}
	.st4{fill:#36DDBD;}
	.st5{fill:#ED3E21;}
</style>
<g>
	<rect x="0" class="st0" width="256" height="256"/>
</g>
<path class="st1" d="M198.6,226.2H57c-0.5,0-0.9-0.4-0.9-0.9v-10.1c0-0.5,0.4-0.9,0.9-0.9h141.6c0.5,0,0.9,0.4,0.9,0.9v10.1
	C199.4,225.9,199,226.2,198.6,226.2z"/>
<rect x="93.4" y="104.3" transform="matrix(0.9899 -0.1414 0.1414 0.9899 -14.0218 19.4234)" class="st1" width="72.5" height="8.1"/>
<rect x="72.1" y="151" transform="matrix(6.123234e-17 -1 1 6.123234e-17 -27.0998 282.6359)" class="st1" width="111.3" height="7.7"/>
<circle class="st1" cx="127.8" cy="108.6" r="13"/>
<circle class="st0" cx="127.8" cy="108.6" r="5.7"/>
<path class="st1" d="M67.4,83.6H99v91.3c0,12.1-7.1,20.3-15.8,20.3c-8.7,0-15.8-8.2-15.8-20.3V83.6z"/>
<path class="st1" d="M156.5,62.1h31.6v99.5c0,8.7-7.1,15.8-15.8,15.8c-8.7,0-15.8-7.1-15.8-15.8V62.1z"/>
<path class="st2" d="M90.3,113.8v61.6c0,5.5-3.2,8.6-7.1,8.6c-3.9,0-7.1-3.1-7.1-8.6v-61.6c0-0.1,0-0.2,0-0.3c0,0,2.4,1.3,7.1,1.3
	c4.8,0,7.1-1.3,7.1-1.3C90.3,113.6,90.3,113.7,90.3,113.8z"/>
<path class="st3" d="M179.5,93v62.5c0,5.6-3.2,8.7-7.2,8.7c-3.9,0-7.2-3.1-7.2-8.7V93c0-0.1,0-0.2,0-0.3c0,0,2.5,1.3,7.2,1.3
	c4.9,0,7.2-1.3,7.2-1.3C179.5,92.8,179.5,92.9,179.5,93z"/>
<ellipse transform="matrix(0.9612 -0.2759 0.2759 0.9612 -14.4354 27.0607)" class="st2" cx="88.9" cy="64.8" rx="5.7" ry="5.7"/>
<circle class="st2" cx="70.9" cy="49.9" r="3.5"/>
<circle class="st3" cx="183.3" cy="30.3" r="4.9"/>
<ellipse transform="matrix(9.634135e-02 -0.9953 0.9953 9.634135e-02 111.6433 220.4517)" class="st3" cx="177.2" cy="48.7" rx="4.9" ry="4.9"/>
<path class="st4" d="M87.5,139.4c-3.8,4.5-7.4,9-11,13.6c-0.1,0.2-0.2,0.3-0.4,0.5v21.9c0,5.5,3.2,8.6,7.1,8.6s7.1-3.1,7.1-8.6
	v-39.3C89.4,137.2,88.4,138.3,87.5,139.4z"/>
<path class="st5" d="M178.3,120.5c-3.9,4.7-7.8,9.3-11.6,14.1c-0.5,0.6-1,1.3-1.5,2v18.9c0,5.6,3.2,8.7,7.2,8.7
	c3.9,0,7.2-3.1,7.2-8.7v-36.3C179.1,119.6,178.7,120.1,178.3,120.5z"/>
<ellipse transform="matrix(9.634135e-02 -0.9953 0.9953 9.634135e-02 109.1833 197.1855)" class="st3" cx="163.2" cy="38.5" rx="3.1" ry="3.1"/>
<polygon class="st1" points="165.2,223.2 90.4,223.2 111.1,199 143.8,199 "/>
</svg>
